<svg xmlns="http://www.w3.org/2000/svg" viewBox="0 0 1000 1000" width="1000" height="1000">
  <defs>
    <linearGradient id="demuxGrad" x1="0%" y1="0%" x2="100%" y2="0%">
      <stop offset="0%" style="stop-color:#5b9bd5;stop-opacity:0.15" />
      <stop offset="100%" style="stop-color:#5b9bd5;stop-opacity:0.05" />
    </linearGradient>
  </defs>
  <polygon points="150,400 850,10 850,990 150,600" fill="url(#demuxGrad)" stroke="#5b9bd5" stroke-width="6" stroke-linejoin="round" />
  <line x1="100" y1="500" x2="150" y2="500" stroke="#5b9bd5" stroke-width="4" />
  <g stroke="#5b9bd5" stroke-width="3" stroke-opacity="0.5" fill="none">
    <line x1="150" y1="500" x2="850" y2="100" />
    <line x1="150" y1="500" x2="850" y2="300" />
    <line x1="150" y1="500" x2="850" y2="500" />
    <line x1="150" y1="500" x2="850" y2="700" />
    <line x1="150" y1="500" x2="850" y2="900" />
  </g>
  <g stroke="#5b9bd5" stroke-width="4" fill="none">
    <line x1="850" y1="100" x2="900" y2="100" />
    <line x1="850" y1="300" x2="900" y2="300" />
    <line x1="850" y1="500" x2="900" y2="500" />
    <line x1="850" y1="700" x2="900" y2="700" />
    <line x1="850" y1="900" x2="900" y2="900" />
  </g>
  <circle cx="100" cy="500" r="18" fill="#2e75b6" />
  <circle cx="100" cy="500" r="10" fill="white" />
  <circle cx="100" cy="500" r="6" fill="#2e75b6" />
  <circle cx="900" cy="100" r="18" fill="#2e75b6" />
  <circle cx="900" cy="100" r="10" fill="white" />
  <circle cx="900" cy="300" r="18" fill="#2e75b6" />
  <circle cx="900" cy="300" r="10" fill="white" />
  <circle cx="900" cy="500" r="18" fill="#2e75b6" />
  <circle cx="900" cy="500" r="10" fill="white" />
  <circle cx="900" cy="700" r="18" fill="#2e75b6" />
  <circle cx="900" cy="700" r="10" fill="white" />
  <circle cx="900" cy="900" r="18" fill="#2e75b6" />
  <circle cx="900" cy="900" r="10" fill="white" />
  <g font-family="monospace" font-size="44" fill="#2e75b6" dominant-baseline="middle">
    <text x="70" y="500" text-anchor="end">u</text>
    <text x="930" y="100" text-anchor="start">y1</text>
    <text x="930" y="300" text-anchor="start">y2</text>
    <text x="930" y="500" text-anchor="start">y3</text>
    <text x="930" y="700" text-anchor="start">y4</text>
    <text x="930" y="900" text-anchor="start">y5</text>
  </g>
  <text x="500" y="500" font-family="sans-serif" font-weight="bold" font-size="64" fill="#2e75b6" text-anchor="middle" dominant-baseline="middle" opacity="0.6">DEMUX</text>
</svg>
