<svg xmlns="http://www.w3.org/2000/svg" viewBox="0 0 1000 1000" width="1000" height="1000">
  <defs>
    <linearGradient id="muxGrad" x1="0%" y1="0%" x2="100%" y2="0%">
      <stop offset="0%" style="stop-color:#5b9bd5;stop-opacity:0.15" />
      <stop offset="100%" style="stop-color:#5b9bd5;stop-opacity:0.05" />
    </linearGradient>
  </defs>
  <polygon points="150,10 850,400 850,600 150,990" fill="url(#muxGrad)" stroke="#5b9bd5" stroke-width="6" stroke-linejoin="round" />
  <g stroke="#5b9bd5" stroke-width="4" fill="none">
    <line x1="100" y1="125" x2="150" y2="125" />
    <line x1="100" y1="375" x2="150" y2="375" />
    <line x1="100" y1="625" x2="150" y2="625" />
    <line x1="100" y1="875" x2="150" y2="875" />
  </g>
  <g stroke="#5b9bd5" stroke-width="3" stroke-opacity="0.5" fill="none">
    <line x1="150" y1="125" x2="850" y2="500" />
    <line x1="150" y1="375" x2="850" y2="500" />
    <line x1="150" y1="625" x2="850" y2="500" />
    <line x1="150" y1="875" x2="850" y2="500" />
  </g>
  <line x1="850" y1="500" x2="900" y2="500" stroke="#5b9bd5" stroke-width="4" />
  <circle cx="100" cy="125" r="18" fill="#2e75b6" />
  <circle cx="100" cy="125" r="10" fill="white" />
  <circle cx="100" cy="125" r="6" fill="#2e75b6" />
  <circle cx="100" cy="375" r="18" fill="#2e75b6" />
  <circle cx="100" cy="375" r="10" fill="white" />
  <circle cx="100" cy="375" r="6" fill="#2e75b6" />
  <circle cx="100" cy="625" r="18" fill="#2e75b6" />
  <circle cx="100" cy="625" r="10" fill="white" />
  <circle cx="100" cy="625" r="6" fill="#2e75b6" />
  <circle cx="100" cy="875" r="18" fill="#2e75b6" />
  <circle cx="100" cy="875" r="10" fill="white" />
  <circle cx="100" cy="875" r="6" fill="#2e75b6" />
  <circle cx="900" cy="500" r="18" fill="#2e75b6" />
  <circle cx="900" cy="500" r="10" fill="white" />
  <circle cx="900" cy="500" r="6" fill="#2e75b6" />
  <g font-family="monospace" font-size="44" fill="#2e75b6" dominant-baseline="middle">
    <text x="70" y="125" text-anchor="end">u1</text>
    <text x="70" y="375" text-anchor="end">u2</text>
    <text x="70" y="625" text-anchor="end">u3</text>
    <text x="70" y="875" text-anchor="end">u4</text>
    <text x="930" y="500" text-anchor="start">y</text>
  </g>
  <text x="500" y="500" font-family="sans-serif" font-weight="bold" font-size="64" fill="#2e75b6" text-anchor="middle" dominant-baseline="middle" opacity="0.6">MUX</text>
</svg>
